<?xml version="1.0" encoding="UTF-8"?>
<svg id="Layer_1" data-name="Layer 1" xmlns="http://www.w3.org/2000/svg" xmlns:xlink="http://www.w3.org/1999/xlink" viewBox="0 0 500 500">
  <defs>
    <style>
      .cls-1 {
        fill: #93a2b8;
      }

      .cls-2 {
        fill: #e8a7b7;
      }

      .cls-3 {
        fill: #121314;
      }

      .cls-4 {
        fill: #1f9f4a;
      }

      .cls-5 {
        fill: #165a2f;
      }

      .cls-6 {
        fill: #e7a4b5;
      }

      .cls-7 {
        fill: #e8f2e2;
      }

      .cls-8 {
        fill: #434d54;
      }

      .cls-9 {
        fill: url(#linear-gradient);
      }

      .cls-10 {
        fill: #b6d46e;
      }
    </style>
    <linearGradient id="linear-gradient" x1="23.68" y1="476.32" x2="474.26" y2="25.74" gradientUnits="userSpaceOnUse">
      <stop offset="0" stop-color="#0a0a0a"/>
      <stop offset=".54" stop-color="#10331d"/>
      <stop offset="1" stop-color="#165a2f"/>
    </linearGradient>
  </defs>
  <rect class="cls-9" width="500" height="500" rx="84.37" ry="84.37"/>
  <path class="cls-5" d="M304.52,79.05l-.85.27c-28.04-.02-56.09-.05-84.13-.02v85.22c28.49,0,56.99.01,85.48,0v-85.47h-.5ZM261.1,89.4c12.52-1.33,13.97,17.45,1.68,18.22-11.9.75-13.21-17-1.68-18.22ZM263.91,154.25c-1.54.31-1.73.26-3.26,0-10.53-1.82-9.67-17.06.25-18.05.68-.07,1.84-.07,2.51,0,10.03,1.08,10.88,15.93.5,18.05Z"/>
  <path class="cls-4" d="M219.54,79.3v85.22c-18.76,0-37.53,0-56.29-.01l-.61.26v42.36l256.18.25v213.31H77.17l-.02-84.38.27-.85,255.93-.25v-42.36c-.26-.41-.95-.25-1.38-.26-84.91-.89-169.89.68-254.8,0V79.3c47.45-.03,94.92.05,142.38,0Z"/>
  <path class="cls-1" d="M361.43,93.59c.76,14.16,20.64,17.38,25.82,4.26,14.83,8.77,21.16,27.26,15.29,43.49-1.81,5-5.42,10.51-9.28,14.16-.78.74-2.41,2.15-3.26,2.76-3.06,2.19-7.66,4.36-11.28,5.39-28.03,7.98-53.24-18.93-43.87-46.25,12.83,9.25,28.98-8.76,17.55-20.8,2.83-1.31,5.89-2.7,9.02-3.01ZM363.44,116.9c.03.12.14.24.25.25.53.05,1.5.07,2.01,0,.12-.02.22-.13.25-.25,6.28-2.85,1.2-10.85-3.75-7.63-2.26,1.47-2.46,5.17-.39,6.88.54.45,1.04.52,1.63.75Z"/>
  <path class="cls-6" d="M352.41,96.6c11.44,12.04-4.72,30.05-17.55,20.8-4.53-3.27-6.55-9.95-4.94-15.34,2.84-9.52,15.6-12.71,22.49-5.46Z"/>
  <path class="cls-6" d="M387.25,97.85c-5.18,13.12-25.06,9.9-25.82-4.26-.27-5.11,2.04-9.85,6.44-12.48,11.22-6.71,24.13,4.7,19.38,16.74Z"/>
  <path class="cls-2" d="M393.26,155.5c3.19,1.06,8.49,1.96,9.7-2.2,1.14-3.91.54-7.06,2.62-11.16,2.37-4.66,4.97-5.28,8.48-8.31,5.51-4.76,4.45-12.14,2.5-18.42.71-.13.41.17.56.55,1.54,3.82,2.36,9.5,1.32,13.49-1.58,6.02-7.87,7.37-10.62,12.94-2.02,4.09-1.34,6.87-2.07,10.96-1.39,7.77-9.98,6.86-15.76,4.92.85-.61,2.47-2.02,3.26-2.76Z"/>
  <path class="cls-10" d="M418.82,207.39l-256.18-.25,256.18.25Z"/>
  <polygon class="cls-7" points="333.35 335.22 333.09 335.22 333.35 334.97 333.35 335.22"/>
  <path class="cls-3" d="M365.94,116.9c-.1.05-.18.16-.25.25-.5.07-1.48.05-2.01,0-.06-.09-.15-.21-.25-.25-.6-.23-1.09-.3-1.63-.75-2.07-1.72-1.86-5.42.39-6.88,4.95-3.22,10.03,4.78,3.75,7.63Z"/>
  <path class="cls-8" d="M363.69,117.15c-.11-.01-.22-.13-.25-.25.1.04.19.16.25.25Z"/>
  <path class="cls-8" d="M365.69,117.15c.07-.09.15-.2.25-.25-.03.12-.13.23-.25.25Z"/>
  <path class="cls-4" d="M261.34,140.77c5.06-.81,7.38,5.68,3.31,8.33-1.96,1.28-4.74.79-6.11-1.13-1.94-2.71-.56-6.65,2.8-7.19Z"/>
  <path class="cls-4" d="M263.41,102.86c-1.22.34-1.07.29-2.26,0-5.04-1.24-4.25-8.16,0-8.77.49-.07,1.51-.06,2.01,0,4.35.49,4.98,7.47.25,8.77Z"/>
</svg>